<svg xmlns="http://www.w3.org/2000/svg" width="53" height="52" viewBox="0 0 53 52" fill="none">
  <circle cx="26.5" cy="26" r="26" fill="black"/>
  <path d="M29.5837 19.19C29.9618 18.7543 30.25 18.2482 30.4319 17.7007C30.6138 17.1533 30.6858 16.5753 30.6437 16C29.4831 16.0937 28.4057 16.6396 27.6437 17.52C27.2788 17.942 27.0023 18.4329 26.8305 18.9636C26.6588 19.4944 26.5952 20.0542 26.6437 20.61C27.2099 20.6147 27.7695 20.4891 28.2793 20.2429C28.7891 19.9966 29.2354 19.6364 29.5837 19.19ZM32.1037 26.63C32.1104 25.8637 32.3123 25.1118 32.6902 24.4452C33.0681 23.7786 33.6096 23.2193 34.2637 22.82C33.8509 22.2252 33.3053 21.7348 32.67 21.3877C32.0347 21.0405 31.3272 20.8462 30.6037 20.82C29.0437 20.66 27.6037 21.73 26.7737 21.73C25.9437 21.73 24.7737 20.84 23.4737 20.86C22.6238 20.888 21.7957 21.1358 21.0702 21.5792C20.3446 22.0226 19.7463 22.6465 19.3337 23.39C17.5737 26.45 18.8837 31 20.6437 33.47C21.4437 34.68 22.4437 36.05 23.7637 36C25.0837 35.95 25.5137 35.18 27.0437 35.18C28.5737 35.18 29.0437 36 30.3437 35.97C31.6437 35.94 32.5637 34.73 33.4037 33.52C33.9988 32.6415 34.4636 31.6816 34.7837 30.67C33.9912 30.332 33.315 29.7693 32.8387 29.0513C32.3625 28.3333 32.1069 27.4916 32.1037 26.63Z" fill="white"/>
</svg>