<svg xmlns="http://www.w3.org/2000/svg" width="53" height="52" viewBox="0 0 53 52" fill="none">
  <circle cx="26.5" cy="26" r="26" fill="#FFD15A"/>
  <path d="M26.6875 18C28.3486 18 29.885 18.3095 31.2966 18.9286C32.7083 19.5476 33.8242 20.3894 34.6445 21.4538C35.4648 22.5183 35.875 23.6794 35.875 24.9371C35.875 26.1949 35.4648 27.3576 34.6445 28.4254C33.8242 29.4931 32.71 30.3365 31.3018 30.9556C29.8936 31.5746 28.3555 31.8841 26.6875 31.8841C26.1611 31.8841 25.6177 31.8481 25.0571 31.776C22.6235 33.394 21.3281 34.2129 21.1709 34.2325C21.0957 34.2587 21.0239 34.2555 20.9556 34.2227C20.9282 34.2031 20.9077 34.1769 20.894 34.1441C20.8804 34.1113 20.8735 34.0819 20.8735 34.0557V34.0164C20.9146 33.7609 21.2256 32.6964 21.8066 30.8229C20.4873 30.1941 19.4397 29.3605 18.6638 28.3222C17.8879 27.2839 17.5 26.1556 17.5 24.9371C17.5 23.6794 17.9102 22.5183 18.7305 21.4538C19.5508 20.3894 20.6667 19.5476 22.0784 18.9286C23.49 18.3095 25.0264 18 26.6875 18Z" fill="#3C1E1E"/>
</svg>