<svg xmlns="http://www.w3.org/2000/svg" width="44" height="21" viewBox="0 0 44 21" fill="none">
  <path d="M3.72564 19.6391H0L3.84853 0.321045H11.4981C13.1626 0.321045 14.1792 0.6115 15.0729 1.35439C16.0923 2.17549 16.6621 3.42109 16.6621 4.80075C16.6621 6.84232 15.8186 9.09334 14.4781 10.6043C13.1375 12.1152 11.6964 12.752 9.73583 12.752H5.09134L3.72564 19.6419V19.6391ZM9.56267 9.43686C10.8781 9.43686 11.7243 9.01235 12.3443 8.08513C12.6906 7.52935 12.9643 6.52114 12.9643 5.72518C12.9643 4.47958 12.0706 3.63056 10.7301 3.63056H6.90668L5.76441 9.43407H9.56267V9.43686Z" fill="#231815"/>
  <path d="M16.3602 0.321045H23.4373C27.931 0.321045 29.8692 2.30954 29.8692 6.94565C29.8692 10.0736 28.8749 13.3329 27.0875 15.9302C25.275 18.6057 23.1887 19.6391 19.5888 19.6391H12.5117L16.3602 0.321045ZM20.2339 16.3268C22.3956 16.3268 23.6105 15.5839 24.6801 13.5982C25.5235 12.0342 26.1715 9.3056 26.1715 7.21097C26.1715 4.80075 25.0543 3.63335 22.7698 3.63335H19.4184L16.9104 16.3268H20.2395H20.2339Z" fill="#231815"/>
  <path d="M39.3414 6.20252C39.3665 5.96513 39.3916 5.72495 39.3916 5.59368C39.3916 4.16375 38.2242 3.39293 36.1128 3.39293C33.8534 3.39293 32.4626 4.45421 32.4626 6.14946C32.4626 7.15767 33.1329 7.57939 35.4677 8.08489L38.174 8.6686C40.7071 9.19924 42.0728 10.5761 42.0728 12.6177C42.0728 14.366 41.4025 16.3014 40.358 17.547C38.9168 19.3233 36.6072 20.2505 33.5769 20.2505C31.1667 20.2505 29.4799 19.6947 28.2873 18.5273C27.3936 17.6532 26.8965 16.4327 26.8965 15.0279C26.8965 14.6564 26.9216 14.3911 26.997 13.8605H30.6221C30.597 14.0979 30.5719 14.3381 30.5719 14.4693C30.5719 15.9802 31.8621 16.8544 34.1243 16.8544C36.7077 16.8544 38.3722 15.7149 38.3722 13.9135C38.3722 12.6679 37.6517 12.1373 35.3923 11.6597L32.9597 11.1291C30.0049 10.4923 28.7621 9.32771 28.7621 7.12695C28.7621 5.24458 29.6307 3.25887 31.0466 1.9602C32.4626 0.636401 34.3506 -0.000366211 36.758 -0.000366211C40.7071 -0.000366211 43.0167 1.69489 43.0167 4.55754C43.0167 5.08818 42.9665 5.45963 42.8184 6.19973H39.3414V6.20252Z" fill="#231815"/>
</svg>