<svg width="148" height="94" viewBox="0 0 148 94" fill="none" xmlns="http://www.w3.org/2000/svg">
<path d="M34.6476 46.7402H26.3994L34.9197 5.01318H51.8551C55.5402 5.01318 57.7909 5.64057 59.7694 7.24522C62.0263 9.01878 63.2876 11.7093 63.2876 14.6894C63.2876 19.0991 61.4203 23.9613 58.4524 27.2249C55.4846 30.4885 52.2941 31.864 47.9536 31.864H37.6712L34.6476 46.7462V46.7402ZM47.5702 24.7033C50.4825 24.7033 52.3559 23.7864 53.7286 21.7836C54.4953 20.5831 55.1012 18.4054 55.1012 16.6861C55.1012 13.9956 53.1226 12.1617 50.1548 12.1617H41.6901L39.1613 24.6973H47.5702V24.7033Z" fill="#111111"/>
<path d="M62.6199 5.01318H78.2878C88.2363 5.01318 92.5274 9.30834 92.5274 19.3223C92.5274 26.0788 90.3262 33.1187 86.369 38.729C82.3562 44.5081 77.7375 46.7402 69.7675 46.7402H54.0996L62.6199 5.01318ZM71.1958 39.5856C75.9815 39.5856 78.6711 37.9809 81.0392 33.6918C82.9065 30.3136 84.341 24.4198 84.341 19.8954C84.341 14.6894 81.8678 12.1678 76.81 12.1678H69.3903L63.8379 39.5856H71.2082H71.1958Z" fill="#111111"/>
<path d="M113.499 17.7173C113.555 17.2046 113.61 16.6858 113.61 16.4022C113.61 13.3136 111.026 11.6486 106.351 11.6486C101.349 11.6486 98.2701 13.941 98.2701 17.6027C98.2701 19.7805 99.7541 20.6914 104.923 21.7833L110.915 23.0441C116.523 24.1902 119.546 27.1643 119.546 31.574C119.546 35.3504 118.062 39.5309 115.75 42.2214C112.559 46.0581 107.446 48.0609 100.737 48.0609C95.4012 48.0609 91.6666 46.8605 89.0264 44.3389C87.0479 42.4507 85.9473 39.8145 85.9473 36.7801C85.9473 35.9778 86.0029 35.4047 86.1699 34.2585H94.1955C94.1398 34.7713 94.0842 35.2901 94.0842 35.5736C94.0842 38.8372 96.9408 40.7254 101.949 40.7254C107.668 40.7254 111.353 38.2641 111.353 34.3731C111.353 31.6826 109.758 30.5364 104.756 29.5049L99.3707 28.3587C92.829 26.9833 90.0776 24.4677 90.0776 19.7141C90.0776 15.6482 92.0005 11.359 95.1353 8.55393C98.2701 5.69451 102.45 4.31909 107.78 4.31909C116.523 4.31909 121.636 7.98083 121.636 14.1642C121.636 15.3104 121.525 16.1127 121.197 17.7113H113.499V17.7173Z" fill="#111111"/>
<path d="M14.5967 87.9329V78.0681H15.4638V87.9329H14.5967ZM18.634 87.9329L15.7132 84.4061L18.4824 81.1404H19.4335L16.7062 84.3501L19.641 87.9329H18.6363H18.634Z" fill="#040000"/>
<path d="M23.7733 88.0447C22.7173 88.0447 21.9178 87.7463 21.377 87.1496C20.8339 86.5528 20.5635 85.7067 20.5635 84.6134V84.4479C20.5635 83.3267 20.8432 82.4759 21.405 81.8932C21.9644 81.3104 22.673 81.019 23.5262 81.019C25.3257 81.019 26.2278 82.075 26.2278 84.1869V84.6834H21.4586C21.4679 85.6018 21.6754 86.2684 22.0786 86.681C22.4819 87.0936 23.0926 87.3011 23.9108 87.3011C24.673 87.3011 25.3747 87.1356 26.018 86.8046V87.4666C25.4399 87.8535 24.6917 88.0447 23.7733 88.0447ZM23.4982 81.7207C22.9551 81.7207 22.4959 81.9048 22.1206 82.2708C21.743 82.6391 21.5285 83.2125 21.4726 83.9934H25.3164C25.3164 83.2218 25.1672 82.6507 24.8688 82.2778C24.5705 81.9048 24.1136 81.7207 23.4982 81.7207Z" fill="#040000"/>
<path d="M30.5779 88.0447C29.522 88.0447 28.7225 87.7463 28.1817 87.1496C27.6386 86.5528 27.3682 85.7067 27.3682 84.6134V84.4479C27.3682 83.3267 27.6479 82.4759 28.2097 81.8932C28.7691 81.3104 29.4777 81.019 30.3309 81.019C32.1304 81.019 33.0325 82.075 33.0325 84.1869V84.6834H28.2656C28.2749 85.6018 28.4824 86.2684 28.8856 86.681C29.2889 87.0936 29.8996 87.3011 30.7178 87.3011C31.48 87.3011 32.1817 87.1356 32.825 86.8046V87.4666C32.2469 87.8535 31.4987 88.0447 30.5803 88.0447H30.5779ZM30.3029 81.7207C29.7598 81.7207 29.3006 81.9048 28.9253 82.2708C28.5476 82.6391 28.3332 83.2125 28.2773 83.9934H32.1211C32.1211 83.2218 31.9719 82.6507 31.6735 82.2778C31.3751 81.9048 30.9183 81.7207 30.3029 81.7207Z" fill="#040000"/>
<path d="M34.6152 89.9719V81.1398H35.4427V81.6899H35.4987C36.0861 81.24 36.7901 81.0139 37.6059 81.0139C38.4217 81.0139 39.0977 81.2773 39.6036 81.8065C40.1094 82.3356 40.3611 83.1957 40.3611 84.3892V84.5407C40.3611 85.7249 40.0931 86.606 39.5546 87.1794C39.0162 87.7528 38.2609 88.0395 37.2889 88.0395C36.5826 88.0395 35.9742 87.8834 35.4707 87.571V89.9673H34.6176L34.6152 89.9719ZM37.205 87.3402C38.7015 87.3402 39.4497 86.4545 39.4497 84.6806V84.4335C39.4497 83.4405 39.2796 82.7482 38.9392 82.3519C38.5989 81.958 38.0814 81.7598 37.3821 81.7598C36.6828 81.7598 36.0185 81.9486 35.466 82.3239V86.8437C35.9625 87.1747 36.5406 87.3402 37.2026 87.3402H37.205Z" fill="#040000"/>
<path d="M46.1072 90.0001C45.7949 90.0001 45.5198 89.9395 45.2797 89.8206V89.1726C45.5548 89.2378 45.7856 89.2681 45.9697 89.2681C46.31 89.2681 46.5828 89.1866 46.7902 89.0281C46.9977 88.8672 47.1655 88.6085 47.2937 88.2495L47.5152 87.6015L44.8975 81.126H45.8065L47.9417 86.4709H47.9697L49.9534 81.126H50.8065L48.1049 88.3451C47.8835 88.9232 47.6271 89.3451 47.3333 89.6061C47.0396 89.8672 46.6317 89.9977 46.1072 89.9977V90.0001Z" fill="#040000"/>
<path d="M54.7038 88.0441C53.7575 88.0441 53.0139 87.7504 52.4707 87.1629C51.9276 86.5755 51.6572 85.7387 51.6572 84.6548V84.4613C51.6572 83.3774 51.9369 82.5336 52.4987 81.9252C53.0582 81.3191 53.7994 81.0161 54.7178 81.0161C55.6362 81.0161 56.4101 81.3121 56.9579 81.9042C57.5034 82.4963 57.7784 83.3355 57.7784 84.4194V84.5989C57.7784 85.6734 57.4964 86.5173 56.9299 87.128C56.3658 87.7387 55.6222 88.0441 54.7038 88.0441ZM53.1467 86.6944C53.5407 87.1163 54.0698 87.3284 54.7318 87.3284C55.3938 87.3284 55.916 87.1 56.3029 86.6455C56.6898 86.1909 56.881 85.5359 56.881 84.6828V84.3937C56.881 83.4567 56.6852 82.7783 56.2959 82.3541C55.9043 81.9322 55.3752 81.7201 54.7038 81.7201C54.0325 81.7201 53.5197 81.9508 53.1327 82.41C52.7458 82.8693 52.5547 83.5219 52.5547 84.3658V84.6828C52.5547 85.6012 52.7528 86.2725 53.1467 86.6944Z" fill="#040000"/>
<path d="M61.3723 88.0444C60.7103 88.0444 60.2021 87.8812 59.8431 87.5549C59.4842 87.2285 59.3047 86.7437 59.3047 86.1003V81.126H60.1718V85.9908C60.1718 86.4593 60.2814 86.795 60.5028 86.9954C60.7243 87.1982 61.0949 87.2985 61.6194 87.2985C62.3 87.2985 62.9783 87.0957 63.659 86.6924V81.126H64.5121V87.9325H63.7685L63.687 87.2985H63.645C62.8828 87.795 62.1252 88.042 61.3723 88.042V88.0444Z" fill="#040000"/>
<path d="M66.5381 87.9328V81.1263H67.3656V81.9118H67.4215C67.643 81.674 67.9297 81.4689 68.2817 81.2988C68.636 81.1286 68.9996 81.0447 69.3772 81.0447C69.5707 81.0447 69.7082 81.0587 69.7898 81.0866V81.8862C69.6243 81.8582 69.4635 81.8442 69.3073 81.8442C68.5917 81.8442 67.9577 82.075 67.4052 82.5342V87.9351H66.5381V87.9328Z" fill="#040000"/>
<path d="M72.8761 88.0302C72.0136 88.0302 71.291 87.8694 70.7129 87.5477V86.8577C71.4192 87.1514 72.1092 87.2983 72.7805 87.2983C73.8457 87.2983 74.3795 86.9207 74.3795 86.1677C74.3795 85.8181 74.2863 85.5547 74.0975 85.3752C73.9087 85.1957 73.58 85.0419 73.1115 84.9137L72.4215 84.7062C71.8714 84.5687 71.4565 84.3589 71.1814 84.0792C70.9064 83.7995 70.7688 83.3915 70.7688 82.8601C70.7688 82.3006 70.9623 81.8531 71.3469 81.5174C71.7339 81.1817 72.298 81.0139 73.0416 81.0139C73.7385 81.0139 74.3446 81.1468 74.8597 81.4125V82.1141C74.3632 81.8671 73.7712 81.7412 73.0835 81.7412C72.0905 81.7412 71.5963 82.0908 71.5963 82.7878C71.5963 83.1002 71.6779 83.3402 71.8434 83.5104C72.0089 83.6806 72.2933 83.8251 72.6966 83.944L73.4262 84.1374C74.0882 84.3309 74.5567 84.5617 74.8318 84.8321C75.1068 85.1025 75.2443 85.5244 75.2443 86.0932C75.2443 86.6992 75.0369 87.1724 74.6243 87.5127C74.2117 87.8531 73.6266 88.0232 72.8737 88.0232L72.8761 88.0302Z" fill="#040000"/>
<path d="M79.5867 88.0447C78.5308 88.0447 77.7313 87.7463 77.1905 87.1496C76.6473 86.5528 76.377 85.7067 76.377 84.6134V84.4479C76.377 83.3267 76.6567 82.4759 77.2184 81.8932C77.7779 81.3104 78.4865 81.019 79.3396 81.019C81.1392 81.019 82.0413 82.075 82.0413 84.1869V84.6834H77.2744C77.2837 85.6018 77.4912 86.2684 77.8944 86.681C78.2977 87.0936 78.9084 87.3011 79.7266 87.3011C80.4888 87.3011 81.1905 87.1356 81.8338 86.8046V87.4666C81.2557 87.8535 80.5075 88.0447 79.5891 88.0447H79.5867ZM79.3117 81.7207C78.7686 81.7207 78.3093 81.9048 77.9341 82.2708C77.5564 82.6391 77.342 83.2125 77.286 83.9934H81.1298C81.1298 83.2218 80.9807 82.6507 80.6823 82.2778C80.3839 81.9048 79.9271 81.7207 79.3117 81.7207Z" fill="#040000"/>
<path d="M83.6504 87.9329V78.0681H84.5175V87.9329H83.6504Z" fill="#040000"/>
<path d="M86.9978 87.9324V81.8718H85.9512V81.1422H86.9978V80.1235C86.9978 79.4079 87.1843 78.8741 87.5549 78.5245C87.9279 78.1748 88.4383 78 89.091 78C89.5596 78 89.9395 78.0699 90.2355 78.2075V78.8415C89.8672 78.7506 89.5362 78.704 89.2425 78.704C88.3148 78.704 87.8509 79.1958 87.8509 80.1771V81.1422H89.4896V81.8718H87.8509V87.9347H86.9978V87.9324Z" fill="#040000"/>
<path d="M96.1743 88.0442C95.5496 88.0442 95.0438 87.881 94.6591 87.5547C94.2722 87.2283 94.0811 86.7668 94.0811 86.1701C94.0811 85.0209 94.7617 84.3705 96.1207 84.2144L98.0507 83.9929V83.1934C98.0507 82.6526 97.9225 82.2773 97.6638 82.0699C97.4074 81.8624 96.9645 81.7598 96.3421 81.7598C95.8829 81.7598 95.3235 81.8391 94.6615 81.9929V81.3729C95.2675 81.1351 95.9342 81.0139 96.6591 81.0139C98.165 81.0139 98.9179 81.6713 98.9179 82.9836V87.93H98.2162L98.1347 87.3239H98.0787C97.6382 87.8018 97.0041 88.0395 96.1766 88.0395L96.1743 88.0442ZM96.3957 87.3542C97.102 87.3542 97.6545 87.1747 98.0484 86.8158V84.6386L96.3538 84.8321C95.8759 84.8787 95.5263 85.0046 95.3072 85.212C95.0857 85.4195 94.9762 85.7295 94.9762 86.1421C94.9762 86.5291 95.102 86.8274 95.3561 87.0372C95.6079 87.2493 95.9552 87.3542 96.3957 87.3542Z" fill="#040000"/>
<path d="M100.928 87.9329V78.0681H101.795V87.9329H100.928Z" fill="#040000"/>
<path d="M103.848 79.7223V78.7712H104.743V79.7223H103.848ZM103.862 87.9344V81.1395H104.729V87.9321H103.862V87.9344Z" fill="#040000"/>
<path d="M108.657 87.9325L106.096 81.126H107.033L109.1 86.8019H109.128L111.21 81.126H112.077L109.529 87.9325H108.662H108.657Z" fill="#040000"/>
<path d="M116.18 88.0447C115.124 88.0447 114.324 87.7463 113.783 87.1496C113.24 86.5528 112.97 85.7067 112.97 84.6134V84.4479C112.97 83.3267 113.249 82.4759 113.811 81.8932C114.371 81.3104 115.079 81.019 115.932 81.019C117.732 81.019 118.634 82.075 118.634 84.1869V84.6834H113.867C113.876 85.6018 114.084 86.2684 114.487 86.681C114.89 87.0936 115.501 87.3011 116.319 87.3011C117.082 87.3011 117.783 87.1356 118.427 86.8046V87.4666C117.849 87.8535 117.1 88.0447 116.182 88.0447H116.18ZM115.904 81.7207C115.361 81.7207 114.902 81.9048 114.527 82.2708C114.149 82.6391 113.935 83.2125 113.879 83.9934H117.723C117.723 83.2218 117.573 82.6507 117.275 82.2778C116.977 81.9048 116.52 81.7207 115.904 81.7207Z" fill="#040000"/>
<path d="M125.48 88.0442C124.855 88.0442 124.349 87.881 123.965 87.5547C123.578 87.2283 123.387 86.7668 123.387 86.1701C123.387 85.0209 124.067 84.3705 125.426 84.2144L127.356 83.9929V83.1934C127.356 82.6526 127.228 82.2773 126.969 82.0699C126.713 81.8624 126.27 81.7598 125.648 81.7598C125.189 81.7598 124.629 81.8391 123.967 81.9929V81.3729C124.573 81.1351 125.24 81.0139 125.965 81.0139C127.471 81.0139 128.224 81.6713 128.224 82.9836V87.93H127.522L127.44 87.3239H127.384C126.944 87.8018 126.31 88.0395 125.482 88.0395L125.48 88.0442ZM125.701 87.3542C126.408 87.3542 126.96 87.1747 127.354 86.8158V84.6386L125.659 84.8321C125.182 84.8787 124.832 85.0046 124.613 85.212C124.391 85.4195 124.282 85.7295 124.282 86.1421C124.282 86.5291 124.408 86.8274 124.662 87.0372C124.914 87.2493 125.261 87.3542 125.701 87.3542Z" fill="#040000"/>
<path d="M132.3 88.0017C131.169 88.0017 130.605 87.4866 130.605 86.4586V81.8712H129.612V81.1416H130.605V79.5286H131.472V81.1416H133.277V81.8712H131.472V86.3351C131.472 86.6847 131.545 86.9318 131.694 87.0787C131.841 87.2255 132.116 87.3001 132.521 87.3001C132.834 87.3001 133.127 87.2535 133.402 87.1626V87.7407C133.109 87.9155 132.74 88.0017 132.3 88.0017Z" fill="#040000"/>
<rect x="0.84668" y="74.25" width="146.306" height="19.5" rx="9.75" stroke="black" stroke-width="0.5"/>
</svg>
