<svg xmlns="http://www.w3.org/2000/svg" width="24" height="24" viewBox="0 0 24 24" fill="none">
  <path d="M12.0064 0.501953C12.0064 0.501953 13.209 1.25272 14.076 1.45052C14.9426 1.64831 16.3519 1.4938 16.3519 1.4938C16.3519 1.4938 17.1098 2.69202 17.8048 3.24642C18.4997 3.80082 19.8367 4.27296 19.8367 4.27296C19.8367 4.27296 19.9995 5.68114 20.3854 6.48233C20.7714 7.28318 21.7707 8.28861 21.7707 8.28861C21.7707 8.28861 21.3064 9.62812 21.3064 10.5173C21.3064 11.4065 21.7707 12.746 21.7707 12.746C21.7707 12.746 20.7714 13.7514 20.3854 14.5523C19.9998 15.3531 19.8367 16.7617 19.8367 16.7617C19.8367 16.7617 18.5001 17.2338 17.8048 17.7882C17.1098 18.3426 16.3519 19.5408 16.3519 19.5408C16.3519 19.5408 14.9426 19.3863 14.076 19.5841C13.2093 19.7819 12.0064 20.5327 12.0064 20.5327C12.0064 20.5327 10.8039 19.7819 9.93692 19.5841C9.07027 19.3863 7.66101 19.5408 7.66101 19.5408C7.66101 19.5408 6.90309 18.3426 6.20813 17.7882C5.51316 17.2338 4.17615 16.7617 4.17615 16.7617C4.17615 16.7617 4.01341 15.3535 3.62748 14.5523C3.2419 13.7514 2.24219 12.746 2.24219 12.746C2.24219 12.746 2.70645 11.4065 2.70645 10.5173C2.70645 9.62812 2.24219 8.28861 2.24219 8.28861C2.24219 8.28861 3.24154 7.28318 3.62748 6.48233C4.01305 5.68149 4.17615 4.27296 4.17615 4.27296C4.17615 4.27296 5.5128 3.80082 6.20813 3.24642C6.90309 2.69202 7.66101 1.4938 7.66101 1.4938C7.66101 1.4938 9.07027 1.64831 9.93692 1.45052C10.8036 1.25272 12.0064 0.501953 12.0064 0.501953Z" stroke="black" stroke-width="0.8" stroke-miterlimit="13.33"/>
  <path d="M8.51432 19.4852L5.09134 22.7365L4.07982 19.5463L1.04492 18.5348L4.03082 15.8755" stroke="black" stroke-width="0.8" stroke-miterlimit="13.33"/>
  <path d="M15.498 19.4852L19.405 22.808L20.4165 19.5463L22.9986 18.5348L19.9819 15.8755" stroke="black" stroke-width="0.8" stroke-miterlimit="13.33"/>
  <path d="M6.6543 15.7313V10.2482L12.1375 10.2482V5.76195C14.5301 5.36318 15.1283 6.59273 15.1283 7.25736V10.2482H18.1191L16.6237 15.7313H6.6543Z" stroke="black" stroke-width="0.8"/>
  <path d="M10.6406 10.1699V15.6531" stroke="black" stroke-width="0.8"/>
</svg>