<svg xmlns="http://www.w3.org/2000/svg" width="72" height="80" viewBox="0 0 72 80" fill="none">
  <path fill-rule="evenodd" clip-rule="evenodd" d="M4.75004 75.417H67.25V4.58366H4.75004V75.417ZM69.3334 79.5837H2.66671C2.11417 79.5837 1.58427 79.3642 1.19357 78.9735C0.802869 78.5828 0.583374 78.0529 0.583374 77.5003V2.50033C0.583374 1.94779 0.802867 1.41789 1.19357 1.02719C1.58427 0.636486 2.11417 0.416992 2.66671 0.416992H69.3334C69.8859 0.416992 70.4158 0.636487 70.8065 1.02719C71.1972 1.41788 71.4167 1.94779 71.4167 2.50033V77.5003C71.4167 78.0529 71.1972 78.5828 70.8065 78.9735C70.4158 79.3642 69.8859 79.5837 69.3334 79.5837ZM21.4167 17.0837V23.3337C21.4167 27.2014 22.9532 30.9107 25.6881 33.6456C28.423 36.3805 32.1323 37.917 36 37.917C39.8678 37.917 43.5771 36.3805 46.312 33.6456C49.0469 30.9107 50.5834 27.2014 50.5834 23.3337V17.0837H54.75V23.3337C54.75 28.3065 52.7746 33.0756 49.2583 36.5919C45.742 40.1082 40.9729 42.0837 36 42.0837C31.0272 42.0837 26.2581 40.1082 22.7418 36.5919C19.2255 33.0756 17.25 28.3065 17.25 23.3337V17.0837H21.4167Z" fill="#242424"/>
</svg>