<svg xmlns="http://www.w3.org/2000/svg" width="17" height="20" viewBox="0 0 17 20" fill="none">
  <path fill-rule="evenodd" clip-rule="evenodd" d="M1 18.5H16V1.5H1V18.5ZM16.5 19.5H0.5C0.367391 19.5 0.240214 19.4473 0.146447 19.3536C0.0526787 19.2598 0 19.1326 0 19V1C0 0.867392 0.0526784 0.740215 0.146447 0.646447C0.240215 0.552678 0.367392 0.5 0.5 0.5H16.5C16.6326 0.5 16.7598 0.552679 16.8536 0.646447C16.9473 0.740214 17 0.867391 17 1V19C17 19.1326 16.9473 19.2598 16.8536 19.3536C16.7598 19.4473 16.6326 19.5 16.5 19.5ZM5 4.5V6C5 6.92826 5.36875 7.8185 6.02513 8.47487C6.6815 9.13125 7.57174 9.5 8.5 9.5C9.42826 9.5 10.3185 9.13125 10.9749 8.47487C11.6313 7.8185 12 6.92826 12 6V4.5H13V6C13 7.19347 12.5259 8.33807 11.682 9.18198C10.8381 10.0259 9.69347 10.5 8.5 10.5C7.30653 10.5 6.16193 10.0259 5.31802 9.18198C4.47411 8.33807 4 7.19347 4 6V4.5H5Z" fill="#242424"/>
</svg>