<svg xmlns="http://www.w3.org/2000/svg" width="20" height="20" viewBox="0 0 20 20" fill="none">
  <path fill-rule="evenodd" clip-rule="evenodd" d="M17.8587 7.99998C17.8587 7.99999 17.8587 7.99999 17.8587 8C17.8591 8.00176 17.8594 8.00352 17.8598 8.00528C17.8594 8.00351 17.8591 8.00175 17.8587 7.99998ZM19.5 9.5V14.5018C19.4996 15.7554 19.071 16.9714 18.2854 17.9483C17.5937 18.8083 16.6618 19.4376 15.6133 19.7596L15.2967 18.81C15.746 18.6747 16.1725 18.4698 16.5602 18.2015C17.108 17.8226 17.5649 17.3268 17.898 16.75L18.3311 16H15C14.6022 16 14.2206 15.842 13.9393 15.5607C13.658 15.2794 13.5 14.8978 13.5 14.5V10.5C13.5 10.1022 13.658 9.72064 13.9393 9.43934C14.2206 9.15804 14.6022 9 15 9H18.5051L18.4341 8.43738C18.1748 6.38347 17.1749 4.49476 15.6221 3.12564C14.0693 1.75651 12.0702 1.00108 10 1.00108C7.92979 1.00108 5.93073 1.75651 4.3779 3.12564C2.82508 4.49476 1.82522 6.38347 1.56594 8.43738L1.49491 9H5C5.39782 9 5.77936 9.15804 6.06066 9.43934C6.34196 9.72064 6.5 10.1022 6.5 10.5V14.5C6.5 14.8978 6.34196 15.2794 6.06066 15.5607C5.77936 15.842 5.39782 16 5 16H2C1.60218 16 1.22064 15.842 0.93934 15.5607C0.658035 15.2794 0.5 14.8978 0.5 14.5V9.5C0.5 4.25314 4.75314 0 10 0C15.2469 0 19.5 4.25314 19.5 9.5ZM14.5 15H18.5V10H14.5V15ZM5.5 10H1.5V15H5.5V10Z" fill="#242424"/>
</svg>