<svg xmlns="http://www.w3.org/2000/svg" width="18" height="22" viewBox="0 0 18 22" fill="none">
  <path fill-rule="evenodd" clip-rule="evenodd" d="M16.8619 9.86496C15.5114 6.15242 13.0543 3.62129 12.9504 3.51539L11.969 2.51512V6.27344C11.969 6.59652 11.7111 6.85937 11.3941 6.85937C11.0771 6.85937 10.8192 6.59652 10.8192 6.27344C10.8192 3.36566 8.49817 1 5.6452 1H5.07031V1.58594C5.07031 3.62322 4.0938 5.23634 3.04226 6.97339C2.68137 7.56955 2.31165 8.1803 1.96953 8.82781C0.618838 11.3841 0.683456 14.5159 2.13813 17.001C3.59126 19.4835 6.21979 21 9.04926 21H9.31635C11.9485 21 14.4181 19.6839 15.9225 17.4793C17.4266 15.2752 17.7771 12.3805 16.8619 9.86496ZM5.27472 1.20833V1.58594C5.27472 3.00267 4.81775 4.21486 4.20205 5.38143C3.90192 5.95008 3.5619 6.51176 3.21763 7.08046L3.19287 7.12137C2.83909 7.70582 2.48098 8.29921 2.1495 8.92659C0.832767 11.4186 0.89599 14.4723 2.31367 16.8942C3.72985 19.3136 6.29164 20.7917 9.04926 20.7917H9.31635C11.8815 20.7917 14.2884 19.509 15.7547 17.3604C17.2203 15.2127 17.5623 12.3896 16.6703 9.93738C15.3351 6.26694 12.9027 3.76134 12.8059 3.66273L12.1734 3.01809V6.27344C12.1734 6.71158 11.824 7.06771 11.3941 7.06771C10.9642 7.06771 10.6148 6.71158 10.6148 6.27344C10.6148 3.48072 8.38528 1.20833 5.6452 1.20833H5.27472Z" fill="#242424"/>
  <path d="M2.1495 8.92659C2.48098 8.29921 2.83909 7.70582 3.19287 7.12137L3.21763 7.08046C3.5619 6.51176 3.90192 5.95008 4.20205 5.38143C4.81775 4.21486 5.27472 3.00267 5.27472 1.58594V1.20833H5.6452C8.38528 1.20833 10.6148 3.48072 10.6148 6.27344C10.6148 6.71158 10.9642 7.06771 11.3941 7.06771C11.824 7.06771 12.1734 6.71158 12.1734 6.27344V3.01809L12.8059 3.66273C12.9027 3.76134 15.3351 6.26694 16.6703 9.93738C17.5623 12.3896 17.2203 15.2127 15.7547 17.3604C14.2884 19.509 11.8815 20.7917 9.31635 20.7917H9.04926C6.29164 20.7917 3.72985 19.3136 2.31367 16.8942C0.89599 14.4723 0.832767 11.4186 2.1495 8.92659ZM2.1495 8.92659L1.98308 8.83525M16.8619 9.86496C15.5114 6.15242 13.0543 3.62129 12.9504 3.51539L11.969 2.51512V6.27344C11.969 6.59652 11.7111 6.85937 11.3941 6.85937C11.0771 6.85937 10.8192 6.59652 10.8192 6.27344C10.8192 3.36566 8.49817 1 5.6452 1H5.07031V1.58594C5.07031 3.62322 4.0938 5.23634 3.04226 6.97339C2.68137 7.56955 2.31165 8.1803 1.96953 8.82781C0.618838 11.3841 0.683456 14.5159 2.13813 17.001C3.59126 19.4835 6.21979 21 9.04926 21H9.31635C11.9485 21 14.4181 19.6839 15.9225 17.4793C17.4266 15.2752 17.7771 12.3805 16.8619 9.86496Z" stroke="black" stroke-width="0.6"/>
  <circle cx="6.5" cy="10.5" r="1.1" stroke="#242424" stroke-width="0.8"/>
  <circle cx="11.5" cy="14.5" r="1.1" stroke="#242424" stroke-width="0.8"/>
  <line x1="5.60583" y1="15.7172" x2="11.8281" y2="9.49494" stroke="#242424" stroke-width="0.8"/>
</svg>