<svg xmlns="http://www.w3.org/2000/svg" width="19" height="24" viewBox="0 0 19 24" fill="none">
  <path d="M18.7131 7.33777H17.3436C18.2399 5.2352 17.9028 3.45134 17.4329 2.29139C16.8839 0.934908 16.0547 0.134248 16.0195 0.100445L15.9147 0.000482907H15.7698C13.165 0.000482907 11.6361 1.08751 10.8118 1.99924C10.2159 2.6584 9.89573 3.31757 9.7441 3.69859C9.61758 3.67927 9.48864 3.66961 9.35681 3.66961C9.22497 3.66961 9.09604 3.67975 8.96952 3.69859C8.81788 3.31757 8.49772 2.6584 7.90181 1.99924C7.07749 1.08702 5.5486 0 2.9438 0H2.79893L2.69414 0.0999618C2.65889 0.133282 1.83022 0.934425 1.28067 2.29091C0.810801 3.45085 0.473732 5.23471 1.37001 7.33729H0V12.5203H0.754301V24H17.9588V12.5203H18.7131V7.33729V7.33777ZM11.3488 2.48456C12.3755 1.34876 13.8107 0.757198 15.6167 0.725809C15.8355 0.963883 16.3759 1.61098 16.7612 2.56279C17.3929 4.1221 17.3209 5.72728 16.5492 7.33777H11.6777C11.8394 6.99588 11.9259 6.61969 11.9259 6.23868C11.9259 6.04648 11.9041 5.85959 11.8636 5.67899C12.2687 5.44285 13.2659 4.91117 14.5524 4.57506L14.3694 3.87436C13.0902 4.20854 12.0939 4.71366 11.6023 4.99278C11.3391 4.52049 10.9316 4.139 10.439 3.90962C10.5747 3.5822 10.8504 3.03555 11.3483 2.48504L11.3488 2.48456ZM11.6728 11.7965H7.0403V8.06213H11.6728V11.7965ZM11.2015 6.23819C11.2015 6.63949 11.076 7.01809 10.8374 7.33729H7.87477C7.63669 7.01761 7.51065 6.63901 7.51065 6.23819C7.51065 5.22071 8.33836 4.39301 9.35584 4.39301C10.3733 4.39301 11.201 5.22071 11.201 6.23819H11.2015ZM1.94129 2.58935C2.3252 1.62885 2.87619 0.967263 3.09737 0.725326C4.88895 0.756715 6.31643 1.33958 7.34212 2.45896C7.85014 3.01382 8.13409 3.57496 8.27317 3.90913C7.78157 4.139 7.37399 4.52001 7.11081 4.99229C6.61873 4.71317 5.62297 4.20805 4.34375 3.87388L4.16073 4.57458C5.44719 4.91068 6.4444 5.44236 6.84956 5.6785C6.80947 5.85863 6.78726 6.046 6.78726 6.23819C6.78726 6.61921 6.8737 6.99539 7.03547 7.33729H2.16391C1.39705 5.73694 1.32123 4.14045 1.94129 2.58935ZM0.724361 11.7965V8.06213H6.31594V11.7965H0.724361ZM1.47866 23.2761V12.5208H6.31594V23.2761H1.47866ZM7.0403 23.2761V12.5208H11.6728V23.2761H7.0403ZM17.2345 23.2761H12.3972V12.5208H17.2345V23.2761ZM17.9888 11.7965H12.3972V8.06213H17.9888V11.7965Z" fill="black"/>
</svg>