<svg xmlns="http://www.w3.org/2000/svg" width="25" height="24" viewBox="0 0 25 24" fill="none">
  <path fill-rule="evenodd" clip-rule="evenodd" d="M17.3091 3H0V19.8041H3.00655C3.17969 20.6364 3.91818 21.2638 4.80132 21.2638C5.68443 21.2638 6.42329 20.6364 6.59614 19.8041H17.6521C17.8252 20.6364 18.5637 21.2638 19.4468 21.2638C20.3299 21.2638 21.0688 20.6364 21.2417 19.8041H24.1996L24.2 10.7722V10.6722C24.2 8.8562 22.7229 7.3791 20.9069 7.3791H15.3933V3.74739H17.3091V3ZM0.747387 19.0567V3.74739H14.6455V19.0567H6.59647C6.42332 18.2244 5.68484 17.597 4.80169 17.597C3.91859 17.597 3.17972 18.2243 3.00688 19.0567H0.747387ZM15.3929 19.0567V8.12648H17.6135V13.9653H23.4522V16.1373H21.5364V16.8847H23.4522V19.0567H21.2416C21.0685 18.2244 20.33 17.597 19.4468 17.597C18.5637 17.597 17.8249 18.2243 17.652 19.0567H15.3929ZM18.3608 13.2179V8.12648H20.9065C22.3103 8.12648 23.4522 9.26845 23.4522 10.6722V13.2179H18.3608ZM3.71532 19.4304C3.71532 18.8317 4.20261 18.3444 4.80132 18.3444C5.40004 18.3444 5.88733 18.8317 5.88733 19.4304C5.88733 20.0291 5.40004 20.5164 4.80132 20.5164C4.20261 20.5164 3.71532 20.0291 3.71532 19.4304ZM18.3608 19.4304C18.3608 18.8317 18.8481 18.3444 19.4468 18.3444C20.0456 18.3444 20.5329 18.8317 20.5329 19.4304C20.5329 20.0291 20.0456 20.5164 19.4468 20.5164C18.8481 20.5164 18.3608 20.0291 18.3608 19.4304ZM12.4734 5.91895H2.96777V15.4245H12.4734V5.91895ZM3.71516 14.6771V6.66633H5.88717V9.58573H9.55396V6.66633H11.726V14.6771H3.71516ZM6.63456 8.83834V6.66633H8.80657V8.83834H6.63456Z" fill="black"/>
</svg>