<svg xmlns="http://www.w3.org/2000/svg" width="25" height="24" viewBox="0 0 25 24" fill="none">
  <path fill-rule="evenodd" clip-rule="evenodd" d="M18.6 17V18.6V19.5H19.5V17C19.5 16.5186 19.2628 16.06 18.7864 15.6202C18.3065 15.1773 17.6179 14.7882 16.8153 14.4666C15.2093 13.8233 13.2725 13.5 12 13.5C10.7275 13.5 8.79071 13.8233 7.18469 14.4666C6.38208 14.7882 5.69352 15.1773 5.21364 15.6202C4.73716 16.06 4.5 16.5186 4.5 17V19.5H5.4V18.6V17C5.4 16.7295 5.55427 16.5182 5.66925 16.3909C5.79872 16.2475 5.96945 16.1118 6.15785 15.986C6.53759 15.7325 7.05741 15.4745 7.65632 15.2435C8.8544 14.7814 10.4409 14.4 12 14.4C13.5591 14.4 15.1456 14.7814 16.3437 15.2435C16.9426 15.4745 17.4624 15.7325 17.8421 15.986C18.0306 16.1118 18.2013 16.2475 18.3307 16.3909C18.4457 16.5182 18.6 16.7295 18.6 17Z" fill="#242424"/>
  <path d="M15 7.5C15 9.83336 13.5472 11.5 12 11.5C10.4528 11.5 9 9.83336 9 7.5C9 5.16664 10.4528 3.5 12 3.5C13.5472 3.5 15 5.16664 15 7.5Z" stroke="#3D3D3D"/>
</svg>