<svg width="374" height="200" viewBox="0 0 374 200" fill="none" xmlns="http://www.w3.org/2000/svg">
<g filter="url(#filter0_f_147_565)">
<rect x="133.365" y="-50" width="274.937" height="152.631" rx="10" transform="rotate(28.7289 133.365 -50)" fill="white" fill-opacity="0.18"/>
<rect x="133.563" y="-49.3212" width="273.937" height="151.631" rx="9.5" transform="rotate(28.7289 133.563 -49.3212)" stroke="url(#paint0_linear_147_565)"/>
</g>
<g style="mix-blend-mode:luminosity">
<path d="M249.746 39.7795L249.744 39.7795C156.218 39.3447 103.783 39.4746 10.2552 39.7795H10.2535C4.86194 39.7795 0.5 44.104 0.5 49.4277V150.185C0.5 155.509 4.86194 159.833 10.2535 159.833H249.746C255.138 159.833 259.5 155.509 259.5 150.185V120.512C259.5 119.163 258.402 118.025 256.985 117.802C246.791 116.198 238.993 107.458 238.993 96.9069C238.993 86.3561 246.791 77.6154 256.985 76.0113C258.402 75.7883 259.5 74.6512 259.5 73.3018V49.4277C259.5 44.104 255.138 39.7795 249.746 39.7795Z" fill="url(#paint1_linear_147_565)"/>
<path d="M249.746 39.7795L249.744 39.7795C156.218 39.3447 103.783 39.4746 10.2552 39.7795H10.2535C4.86194 39.7795 0.5 44.104 0.5 49.4277V150.185C0.5 155.509 4.86194 159.833 10.2535 159.833H249.746C255.138 159.833 259.5 155.509 259.5 150.185V120.512C259.5 119.163 258.402 118.025 256.985 117.802C246.791 116.198 238.993 107.458 238.993 96.9069C238.993 86.3561 246.791 77.6154 256.985 76.0113C258.402 75.7883 259.5 74.6512 259.5 73.3018V49.4277C259.5 44.104 255.138 39.7795 249.746 39.7795Z" stroke="url(#paint2_linear_147_565)"/>
</g>
<g opacity="0.8">
<path d="M35.8353 74.2041C35.5821 72.7571 34.3793 71.955 32.955 71.9707C31.0242 71.955 29.5998 73.4335 29.5998 76.123C29.5998 78.844 31.04 80.291 32.955 80.3068C34.3635 80.291 35.5505 79.5203 35.8353 78.1048H37.5762C37.2122 80.3068 35.408 81.8481 32.955 81.8481C30.0271 81.8481 27.9065 79.6776 27.8906 76.123C27.9065 72.5684 30.043 70.4136 32.955 70.4293C35.3131 70.4136 37.1805 71.7977 37.5762 74.2041H35.8353Z" fill="#0063D4"/>
<path d="M49.0517 76.123C49.0517 79.6934 46.9152 81.8481 44.019 81.8481C41.107 81.8481 38.9705 79.6776 38.9547 76.123C38.9705 72.5684 41.107 70.4136 44.019 70.4293C46.9152 70.4136 49.0517 72.5684 49.0517 76.123ZM40.6639 76.123C40.6639 78.8283 42.0882 80.291 44.019 80.3068C45.934 80.291 47.3741 78.8283 47.3741 76.123C47.3741 73.4335 45.934 71.955 44.019 71.9707C42.0882 71.955 40.6639 73.4335 40.6639 76.123Z" fill="#0063D4"/>
<path d="M58.0936 70.5552H59.8028V77.8846C59.8028 80.2124 58.0303 81.8796 55.3715 81.8796C52.6653 81.8796 50.9086 80.2124 50.9086 77.8846V70.5552H52.6178V77.7273C52.6019 79.253 53.6623 80.3382 55.3715 80.3382C57.0491 80.3382 58.0936 79.253 58.0936 77.7273V70.5552Z" fill="#0063D4"/>
<path d="M62.0035 81.6909V70.5552H65.9917C68.603 70.5709 69.8849 72.128 69.8849 74.1727C69.8849 76.2331 68.5872 77.7902 65.9917 77.7902H63.7127V81.6909H62.0035ZM63.7127 76.3432H65.8334C67.4793 76.3432 68.1599 75.431 68.1757 74.1727C68.1599 72.9144 67.4793 72.0179 65.8334 72.0336H63.7127V76.3432Z" fill="#0063D4"/>
<path d="M81.3011 76.123C81.3011 79.6934 79.1646 81.8481 76.2684 81.8481C73.3564 81.8481 71.2199 79.6776 71.204 76.123C71.2199 72.5684 73.3564 70.4136 76.2684 70.4293C79.1646 70.4136 81.3011 72.5684 81.3011 76.123ZM72.9132 76.123C72.9132 78.8283 74.3376 80.291 76.2684 80.3068C78.1833 80.291 79.6235 78.8283 79.6235 76.123C79.6235 73.4335 78.1833 71.955 76.2684 71.9707C74.3376 71.955 72.9132 73.4335 72.9132 76.123Z" fill="#0063D4"/>
<path d="M92.1788 70.5552V81.6909H90.6278L84.9621 73.575H84.8671V81.6909H83.1579V70.5552H84.7405L90.4063 78.7025H90.5012V70.5552H92.1788Z" fill="#0063D4"/>
</g>
<path d="M39.9917 137.146C33.9687 137.146 29.5736 133.627 29.4922 128.733H35.271C35.3931 130.917 37.4685 132.454 39.9917 132.454C42.9624 132.454 45.0786 130.351 45.0379 127.358C45.0786 124.365 42.9218 122.222 39.9103 122.262C37.7127 122.222 36.207 123.03 35.3524 124.608H29.9805L31.527 108.106H49.1889V113.041H36.4104L35.6779 120.24H35.8407C36.9395 118.824 39.0964 117.813 41.6195 117.813C46.9099 117.813 50.8574 121.736 50.8167 127.196C50.8574 133.02 46.4216 137.146 39.9917 137.146Z" fill="#0063D5"/>
<path d="M65.9119 137.146C58.7088 137.146 54.3544 131.807 54.3544 122.424C54.3544 113.081 58.7495 107.742 65.9119 107.783C73.0744 107.742 77.4695 113.122 77.4695 122.424C77.4695 131.847 73.1151 137.146 65.9119 137.146ZM60.4587 122.424C60.418 129.057 62.5749 132.211 65.9119 132.211C69.249 132.211 71.4058 129.057 71.3652 122.424C71.3652 115.912 69.249 112.636 65.9119 112.636C62.6156 112.636 60.4587 115.912 60.4587 122.424Z" fill="#0063D5"/>
<path d="M106.226 129.866C106.267 126.468 108.505 123.516 112.575 123.556C116.685 123.516 118.882 126.428 118.842 129.866V131.402C118.882 134.8 116.603 137.712 112.575 137.712C108.464 137.712 106.267 134.8 106.226 131.402V129.866ZM91.4942 114.982V113.526C91.4942 110.048 93.8139 107.176 97.8428 107.136C101.912 107.176 104.11 110.048 104.11 113.526V114.982C104.11 118.46 101.872 121.332 97.8428 121.291C93.6918 121.332 91.4942 118.42 91.4942 114.982ZM93.3662 136.741L113.144 108.106H116.807L96.9474 136.741H93.3662ZM95.5638 114.982C95.5638 116.398 96.1335 117.773 97.8428 117.813C99.552 117.773 100.04 116.398 100.04 114.982V113.526C100.04 112.11 99.5927 110.695 97.8428 110.695C96.1335 110.695 95.5638 112.151 95.5638 113.526V114.982ZM110.296 131.402C110.296 132.737 110.825 134.153 112.575 134.153C114.284 134.153 114.813 132.737 114.772 131.402V129.866C114.813 128.49 114.325 127.075 112.575 127.034C110.865 127.075 110.296 128.49 110.296 129.866V131.402Z" fill="#0063D5"/>
<defs>
<filter id="filter0_f_147_565" x="60.5742" y="-49.4263" width="313.311" height="264.848" filterUnits="userSpaceOnUse" color-interpolation-filters="sRGB">
<feFlood flood-opacity="0" result="BackgroundImageFix"/>
<feBlend mode="normal" in="SourceGraphic" in2="BackgroundImageFix" result="shape"/>
<feGaussianBlur stdDeviation="1.5" result="effect1_foregroundBlur_147_565"/>
</filter>
<linearGradient id="paint0_linear_147_565" x1="309.634" y1="-102.145" x2="294.359" y2="143.467" gradientUnits="userSpaceOnUse">
<stop stop-color="white"/>
<stop offset="1" stop-color="white" stop-opacity="0"/>
</linearGradient>
<linearGradient id="paint1_linear_147_565" x1="390.565" y1="179.994" x2="-22.6313" y2="35.1322" gradientUnits="userSpaceOnUse">
<stop stop-color="#CCD4FF"/>
<stop offset="1" stop-color="#EEF1FF"/>
</linearGradient>
<linearGradient id="paint2_linear_147_565" x1="252.31" y1="13.5464" x2="131.5" y2="161.558" gradientUnits="userSpaceOnUse">
<stop stop-color="white"/>
<stop offset="1" stop-color="white" stop-opacity="0"/>
</linearGradient>
</defs>
</svg>
